<?xml version="1.0" encoding="UTF-8"?>
<svg version="1.1" xmlns="http://www.w3.org/2000/svg" width="1240" height="1753">
<path d="M0 0 C409.2 0 818.4 0 1240 0 C1240 578.49 1240 1156.98 1240 1753 C830.8 1753 421.6 1753 0 1753 C0 1174.51 0 596.02 0 0 Z " fill="#FEFEFE" transform="translate(0,0)"/>
<path d="M0 0 C1.71509766 0.52787109 1.71509766 0.52787109 3.46484375 1.06640625 C25.20961898 8.22022481 42.43468857 22.6519928 53 43 C60.54231973 60.28354012 62.19939865 80.17278339 55.54980469 98.02832031 C54.74235522 100.04091823 53.88969376 102.0225553 53 104 C52.29810547 105.56621094 52.29810547 105.56621094 51.58203125 107.1640625 C41.67986902 126.85743837 23.64761162 140.08374821 3.15332031 147.06982422 C-5.84401291 150.01008941 -13.3145196 151 -23 151 C-22.67 172.45 -22.34 193.9 -22 216 C-13.440625 213.23625 -4.88125 210.4725 3.9375 207.625 C24.35269339 201.04721327 44.77515609 194.49242408 65.22122192 188.01116943 C67.7398218 187.21224221 70.25795034 186.41182758 72.77560425 185.60992432 C76.28656345 184.49218044 79.79924717 183.38004137 83.3125 182.26953125 C84.35664566 181.936082 85.40079132 181.60263275 86.47657776 181.25907898 C87.42918991 180.95935684 88.38180206 180.6596347 89.36328125 180.35083008 C90.19126221 180.0883699 91.01924316 179.82590973 91.87231445 179.55549622 C94 179 94 179 97 179 C97.33 180.32 97.66 181.64 98 183 C97.27655396 183.23279663 96.55310791 183.46559326 95.80773926 183.70544434 C88.8687937 185.93856516 81.93024603 188.17291658 74.99210358 190.40853119 C71.42820951 191.55684803 67.86418203 192.70474653 64.29980469 193.8515625 C60.16819199 195.18096574 56.03700344 196.51167922 51.90625 197.84375 C51.22767944 198.06256521 50.54910889 198.28138042 49.84997559 198.5068264 C39.76905709 201.75986059 29.707441 205.0667187 19.67053223 208.45361328 C12.82632655 210.75628433 5.9379105 212.84960619 -1.00390625 214.8359375 C-6.03423079 216.28317124 -11.01981343 217.87294696 -16.00195312 219.47729492 C-20.78707074 221 -20.78707074 221 -23 221 C-23 247.07 -23 273.14 -23 300 C-24.32 300 -25.64 300 -27 300 C-27 250.83 -27 201.66 -27 151 C-31.29 150.67 -35.58 150.34 -40 150 C-60.50103045 146.44595261 -81.15018667 134.77589306 -93.3828125 117.7734375 C-105.74635716 99.76341011 -110.09614783 79.14732878 -106.59716797 57.50878906 C-105.56233378 53.10850276 -103.93659437 49.07194447 -102 45 C-101.53078125 44.00097656 -101.0615625 43.00195312 -100.578125 41.97265625 C-89.857529 20.96374634 -71.33229229 7.51679493 -49.47265625 -0.25390625 C-33.84859952 -4.88146485 -15.50401529 -5.1404791 0 0 Z M-87.65429688 29.37939453 C-100.97891494 45.42598646 -104.53838667 63.72790963 -103 84 C-101.06192243 98.20946294 -94.41792213 110.41382417 -85 121 C-84.40703125 121.68707031 -83.8140625 122.37414062 -83.203125 123.08203125 C-69.97083951 137.4170072 -49.22395717 146.18797993 -29.94140625 147.28125 C-6.35719235 148.0698463 14.63763559 140.77497036 32.625 125.375 C45.16200386 113.53548994 54.42447204 97.00378639 55.3359375 79.52734375 C55.74394314 58.87735348 50.27518728 41.51102505 36 26 C20.16726645 9.53898337 -0.37926375 1.40816947 -23.12744141 0.71630859 C-48.18874955 0.38589135 -70.98688394 10.6658102 -87.65429688 29.37939453 Z " fill="#0F0F0F" transform="translate(637,482)"/>
</svg>
