<?xml version="1.0" encoding="UTF-8"?>
<svg version="1.1" xmlns="http://www.w3.org/2000/svg" width="1240" height="1753">
<path d="M0 0 C409.2 0 818.4 0 1240 0 C1240 578.49 1240 1156.98 1240 1753 C830.8 1753 421.6 1753 0 1753 C0 1174.51 0 596.02 0 0 Z " fill="#FEFEFE" transform="translate(0,0)"/>
<path d="M0 0 C1.71509766 0.52787109 1.71509766 0.52787109 3.46484375 1.06640625 C25.20961898 8.22022481 42.43468857 22.6519928 53 43 C60.54231973 60.28354012 62.19939865 80.17278339 55.54980469 98.02832031 C54.74235522 100.04091823 53.88969376 102.0225553 53 104 C52.29810547 105.56621094 52.29810547 105.56621094 51.58203125 107.1640625 C41.67986902 126.85743837 23.64761162 140.08374821 3.15332031 147.06982422 C-5.84401291 150.01008941 -13.3145196 151 -23 151 C-22.67 172.45 -22.34 193.9 -22 216 C-9.1609375 211.854375 -9.1609375 211.854375 3.9375 207.625 C24.35269339 201.04721327 44.77515609 194.49242408 65.22122192 188.01116943 C67.7398218 187.21224221 70.25795034 186.41182758 72.77560425 185.60992432 C76.28656345 184.49218044 79.79924717 183.38004137 83.3125 182.26953125 C84.35664566 181.936082 85.40079132 181.60263275 86.47657776 181.25907898 C87.42918991 180.95935684 88.38180206 180.6596347 89.36328125 180.35083008 C90.19126221 180.0883699 91.01924316 179.82590973 91.87231445 179.55549622 C94 179 94 179 97 179 C97.33 180.32 97.66 181.64 98 183 C97.32080002 183.21804794 96.64160004 183.43609589 95.94181824 183.66075134 C89.40106517 185.76086938 82.86079062 187.86247205 76.32099438 189.96556759 C72.96236851 191.04559621 69.60358721 192.12513504 66.24438477 193.20336914 C51.0739575 198.07315548 35.92063656 202.98316722 20.82121277 208.0700531 C13.55667688 210.51102344 6.26013222 212.77074846 -1.109375 214.87109375 C-6.10615559 216.30185052 -11.0556091 217.88446231 -16.00268555 219.47753906 C-20.78712357 221 -20.78712357 221 -23 221 C-23.21975379 230.964426 -23.35341463 240.92629551 -23.38603115 250.89318562 C-23.40370564 255.52495528 -23.44775379 260.15290143 -23.55883789 264.78344727 C-24.10255213 288.40941493 -22.86766418 305.29908888 -8.98735046 325.05279541 C-5.43829713 330.31597695 -2.51711866 335.91944051 0.5 341.5 C1.74294499 343.75064097 2.9944965 345.99633306 4.24609375 348.2421875 C6.76027634 352.76758518 9.27317392 357.29369315 11.78515625 361.8203125 C17.83744729 372.72444017 23.90104306 383.62189422 30 394.5 C36.08269429 405.3490997 42.13123701 416.21684863 48.1640625 427.09375 C50.48577755 431.27836212 52.81375661 435.45931732 55.1504364 439.6355896 C56.53863336 442.11701089 57.92466618 444.59963796 59.31057739 447.08233643 C60.28952282 448.83388869 61.27155591 450.58371413 62.25366211 452.33349609 C63.14323608 453.92798584 63.14323608 453.92798584 64.05078125 455.5546875 C64.57325439 456.48780762 65.09572754 457.42092773 65.6340332 458.38232422 C66.93529045 460.87599359 68.00685235 463.37043277 69 466 C67.68 466.33 66.36 466.66 65 467 C58.2520559 455.31742742 51.62701224 443.57096865 45.125 431.75 C40.09548695 422.60620614 35.04505087 413.47556869 29.9375 404.375 C23.22047943 392.40503487 16.55127243 380.40890547 9.89111328 368.40722656 C8.01023399 365.01843861 6.12837552 361.63019663 4.24609375 358.2421875 C3.31748535 356.57071655 3.31748535 356.57071655 2.37011719 354.86547852 C1.1301603 352.63404175 -0.11007104 350.40275746 -1.35058594 348.17163086 C-4.27127854 342.91753379 -7.1887262 337.66171665 -10.09432983 332.39926147 C-11.46147699 329.92365124 -12.83051993 327.44909182 -14.19970703 324.97460938 C-15.161027 323.23539479 -16.11961512 321.4946711 -17.078125 319.75390625 C-19.87723099 314.69705983 -22.67352162 309.72970747 -26 305 C-26.47566406 305.86496094 -26.95132813 306.72992187 -27.44140625 307.62109375 C-32.73064702 317.1643285 -38.28735698 326.53105015 -43.92163086 335.87402344 C-48.88249178 344.11087835 -53.77099859 352.38734881 -58.625 360.6875 C-58.98356079 361.3004895 -59.34212158 361.913479 -59.71154785 362.54504395 C-61.84666197 366.19522095 -61.84666197 366.19522095 -63.98156738 369.84552002 C-68.7725863 378.03463549 -73.60681704 386.19819752 -78.43945312 394.36279297 C-81.12856553 398.90719099 -83.8140587 403.45372726 -86.5 408 C-87.58331689 409.83334305 -88.66665021 411.66667639 -89.75 413.5 C-90.28625 414.4075 -90.8225 415.315 -91.375 416.25 C-93 419 -94.625 421.75 -96.25 424.5 C-96.78705566 425.4089502 -97.32411133 426.31790039 -97.87744141 427.25439453 C-98.95232918 429.07326121 -100.0275206 430.89194848 -101.10302734 432.71044922 C-103.94319478 437.51363552 -106.77680542 442.32054479 -109.6015625 447.1328125 C-110.19130859 448.13570312 -110.78105469 449.13859375 -111.38867188 450.171875 C-112.51952284 452.09521207 -113.64852438 454.01963811 -114.77539062 455.9453125 C-115.28521484 456.8115625 -115.79503906 457.6778125 -116.3203125 458.5703125 C-116.76648926 459.33102051 -117.21266602 460.09172852 -117.67236328 460.87548828 C-119.00829086 463.01326721 -120.45853331 465.00665594 -122 467 C-122.99 466.67 -123.98 466.34 -125 466 C-124.49781227 460.72702881 -121.73271485 456.88727276 -119 452.5 C-117.9006926 450.70283186 -116.80314113 448.90458887 -115.70703125 447.10546875 C-115.11100098 446.12884277 -114.5149707 445.1522168 -113.90087891 444.14599609 C-110.80244664 439.01802303 -107.78779114 433.84135496 -104.76904297 428.66625977 C-99.07475057 418.90626831 -93.33192628 409.17861534 -87.5 399.5 C-80.23722947 387.44413021 -73.12355072 375.30382161 -66.01855469 363.15467834 C-61.2334362 354.97569592 -56.40494954 346.82237687 -51.578125 338.66796875 C-49.92518266 335.87351424 -48.27478925 333.07756709 -46.625 330.28125 C-46.06006836 329.32404053 -45.49513672 328.36683105 -44.91308594 327.38061523 C-43.85866794 325.59389373 -42.80458999 323.80697146 -41.75097656 322.01977539 C-41.26081055 321.18953857 -40.77064453 320.35930176 -40.265625 319.50390625 C-39.55526344 318.27112694 -39.55526344 318.27112694 -38.83055115 317.01344299 C-37 314 -37 314 -34.74324036 310.82492065 C-27.75837083 300.76663784 -26.76613783 292.7206915 -27.12109375 280.69140625 C-27.13793074 278.98652041 -27.15071776 277.2815903 -27.15968323 275.5766449 C-27.19365012 271.14173948 -27.28169288 266.70959088 -27.38201904 262.27575684 C-27.47496213 257.73044104 -27.51537558 253.18466894 -27.56054688 248.63867188 C-27.65636497 239.75791934 -27.80946519 230.87919101 -28 222 C-31.44660203 221.05984982 -34.89322151 220.11976359 -38.33984375 219.1796875 C-39.78103577 218.78656372 -39.78103577 218.78656372 -41.25134277 218.38549805 C-46.92729029 216.83740394 -52.60367809 215.29093926 -58.28050232 213.74606323 C-68.94730387 210.84301109 -79.60424946 207.90471546 -90.26000977 204.96142578 C-97.50328017 202.96167092 -104.74933547 200.97276688 -112 199 C-120.18338412 196.77126773 -128.36490065 194.53575987 -136.54296875 192.28759766 C-138.45542677 191.76224429 -140.36833329 191.23852446 -142.28125 190.71484375 C-144.0446875 190.22951172 -144.0446875 190.22951172 -145.84375 189.734375 C-146.88724609 189.44788086 -147.93074219 189.16138672 -149.00585938 188.86621094 C-152.03414298 187.99012237 -155.01644949 187.01717013 -158 186 C-158 184.68 -158 183.36 -158 182 C-150.56456074 182.95987366 -143.49928326 184.63666079 -136.3449707 186.82861328 C-128.25748885 189.28139585 -120.07371038 191.34512566 -111.88061523 193.4128418 C-105.2609089 195.09872103 -98.74268061 196.98424032 -92.22412109 199.0246582 C-86.92306534 200.62830183 -81.55734379 201.9612648 -76.1875 203.3125 C-65.17798761 206.12167564 -54.26525805 209.18365682 -43.375 212.421875 C-37.93690182 214.01852592 -32.46793937 215.50874381 -27 217 C-27 195.22 -27 173.44 -27 151 C-31.29 150.67 -35.58 150.34 -40 150 C-60.50103045 146.44595261 -81.15018667 134.77589306 -93.3828125 117.7734375 C-105.74635716 99.76341011 -110.09614783 79.14732878 -106.59716797 57.50878906 C-105.56233378 53.10850276 -103.93659437 49.07194447 -102 45 C-101.53078125 44.00097656 -101.0615625 43.00195312 -100.578125 41.97265625 C-89.857529 20.96374634 -71.33229229 7.51679493 -49.47265625 -0.25390625 C-33.84859952 -4.88146485 -15.50401529 -5.1404791 0 0 Z M-87.65429688 29.37939453 C-100.97891494 45.42598646 -104.53838667 63.72790963 -103 84 C-101.06192243 98.20946294 -94.41792213 110.41382417 -85 121 C-84.40703125 121.68707031 -83.8140625 122.37414062 -83.203125 123.08203125 C-69.97083951 137.4170072 -49.22395717 146.18797993 -29.94140625 147.28125 C-6.35719235 148.0698463 14.63763559 140.77497036 32.625 125.375 C45.16200386 113.53548994 54.42447204 97.00378639 55.3359375 79.52734375 C55.74394314 58.87735348 50.27518728 41.51102505 36 26 C20.16726645 9.53898337 -0.37926375 1.40816947 -23.12744141 0.71630859 C-48.18874955 0.38589135 -70.98688394 10.6658102 -87.65429688 29.37939453 Z " fill="#0F0F0F" transform="translate(637,482)"/>
</svg>
