<?xml version="1.0" encoding="UTF-8"?>
<svg version="1.1" xmlns="http://www.w3.org/2000/svg" width="1240" height="1753">
<path d="M0 0 C409.2 0 818.4 0 1240 0 C1240 578.49 1240 1156.98 1240 1753 C830.8 1753 421.6 1753 0 1753 C0 1174.51 0 596.02 0 0 Z " fill="#FEFEFE" transform="translate(0,0)"/>
<path d="M0 0 C1.71509766 0.52787109 1.71509766 0.52787109 3.46484375 1.06640625 C25.20961898 8.22022481 42.43468857 22.6519928 53 43 C60.54231973 60.28354012 62.19939865 80.17278339 55.54980469 98.02832031 C54.74235522 100.04091823 53.88969376 102.0225553 53 104 C52.29810547 105.56621094 52.29810547 105.56621094 51.58203125 107.1640625 C41.67986902 126.85743837 23.64761162 140.08374821 3.15332031 147.06982422 C-5.84401291 150.01008941 -13.3145196 151 -23 151 C-22.67 172.45 -22.34 193.9 -22 216 C-9.1609375 211.854375 -9.1609375 211.854375 3.9375 207.625 C24.35269339 201.04721327 44.77515609 194.49242408 65.22122192 188.01116943 C67.7398218 187.21224221 70.25795034 186.41182758 72.77560425 185.60992432 C76.28656345 184.49218044 79.79924717 183.38004137 83.3125 182.26953125 C84.35664566 181.936082 85.40079132 181.60263275 86.47657776 181.25907898 C87.42918991 180.95935684 88.38180206 180.6596347 89.36328125 180.35083008 C90.19126221 180.0883699 91.01924316 179.82590973 91.87231445 179.55549622 C94 179 94 179 97 179 C97.33 180.32 97.66 181.64 98 183 C97.27655396 183.23279663 96.55310791 183.46559326 95.80773926 183.70544434 C88.8687937 185.93856516 81.93024603 188.17291658 74.99210358 190.40853119 C71.42820951 191.55684803 67.86418203 192.70474653 64.29980469 193.8515625 C60.16819199 195.18096574 56.03700344 196.51167922 51.90625 197.84375 C51.22767944 198.06256521 50.54910889 198.28138042 49.84997559 198.5068264 C39.76905709 201.75986059 29.707441 205.0667187 19.67053223 208.45361328 C12.82632655 210.75628433 5.9379105 212.84960619 -1.00390625 214.8359375 C-6.03423079 216.28317124 -11.01981343 217.87294696 -16.00195312 219.47729492 C-20.78707074 221 -20.78707074 221 -23 221 C-22.97335266 222.46006721 -22.97335266 222.46006721 -22.94616699 223.94963074 C-22.78321598 233.17233163 -22.66370164 242.39473638 -22.58550262 251.61855602 C-22.54394539 256.35951939 -22.4876813 261.09931067 -22.39648438 265.83959961 C-22.30885229 270.42386003 -22.26157992 275.00700123 -22.24098206 279.59203529 C-22.22632508 281.33148102 -22.19770526 283.07087309 -22.15415955 284.80983543 C-21.85965466 297.07062424 -23.55460847 304.1262205 -31 314 C-31.76613726 315.23333525 -32.51528382 316.47778568 -33.23071289 317.74121094 C-34.48056432 319.8888183 -35.73196663 322.03552337 -36.984375 324.18164062 C-37.32275391 324.76276611 -37.66113281 325.3438916 -38.00976562 325.94262695 C-43.7723932 335.83611767 -49.5896638 345.69383657 -55.5 355.5 C-62.04727795 366.36786991 -68.47564688 377.30216169 -74.88079834 388.25405884 C-75.23208801 388.85471161 -75.58337769 389.45536438 -75.9453125 390.07421875 C-76.29321838 390.66915131 -76.64112427 391.26408386 -76.99957275 391.87704468 C-80.65934089 398.13243831 -84.34980914 404.36951161 -88.04296875 410.60522461 C-91.47834686 416.41094968 -94.89207537 422.22895322 -98.29469299 428.0539093 C-101.19042764 433.0101849 -104.09617884 437.96049895 -107.00852966 442.9070282 C-109.14956344 446.54536653 -111.27152464 450.19425482 -113.38671875 453.84765625 C-114.36104021 455.50315713 -115.33622399 457.15815099 -116.3125 458.8125 C-116.95082764 459.93253418 -116.95082764 459.93253418 -117.60205078 461.07519531 C-118.80078125 463.08203125 -118.80078125 463.08203125 -121 466 C-122.32 466 -123.64 466 -125 466 C-124.43542786 461.54154063 -122.60184993 458.29716004 -120.25 454.5625 C-119.42605338 453.22198668 -118.60320333 451.88079896 -117.78125 450.5390625 C-117.33394531 449.81235352 -116.88664063 449.08564453 -116.42578125 448.33691406 C-113.81965418 444.06536469 -111.28933494 439.74896817 -108.75 435.4375 C-107.63031905 433.54029924 -106.510526 431.64316463 -105.390625 429.74609375 C-104.82923828 428.79460449 -104.26785156 427.84311523 -103.68945312 426.86279297 C-100.96172198 422.2406289 -98.23073618 417.62038912 -95.5 413 C-94.41665021 411.16667639 -93.33331689 409.33334305 -92.25 407.5 C-76 380 -76 380 -59.75 352.5 C-59.21342773 351.59193604 -58.67685547 350.68387207 -58.12402344 349.74829102 C-57.04401115 347.92061539 -55.96393335 346.09297847 -54.88378906 344.26538086 C-52.12409673 339.59580489 -49.36565373 334.92549807 -46.609375 330.25390625 C-46.04669922 329.30064453 -45.48402344 328.34738281 -44.90429688 327.36523438 C-43.85307751 325.58424289 -42.80225092 323.80301948 -41.75195312 322.02148438 C-41.0162207 320.7752832 -41.0162207 320.7752832 -40.265625 319.50390625 C-39.79203049 318.68201813 -39.31843597 317.86013 -38.83049011 317.01333618 C-37 314 -37 314 -34.74324036 310.82492065 C-27.75837083 300.76663784 -26.76613783 292.7206915 -27.12109375 280.69140625 C-27.13793074 278.98652041 -27.15071776 277.2815903 -27.15968323 275.5766449 C-27.19365012 271.14173948 -27.28169288 266.70959088 -27.38201904 262.27575684 C-27.47496213 257.73044104 -27.51537558 253.18466894 -27.56054688 248.63867188 C-27.65636497 239.75791934 -27.80946519 230.87919101 -28 222 C-31.44004124 221.06096725 -34.88016995 220.12225528 -38.3203125 219.18359375 C-39.27848877 218.92203491 -40.23666504 218.66047607 -41.22387695 218.39099121 C-46.98778184 216.81846605 -52.75386486 215.25428267 -58.52206421 213.69758606 C-67.08979332 211.38505151 -75.61475879 208.95318712 -84.125 206.4375 C-92.32565559 204.01667384 -100.54801432 201.80045866 -108.85302734 199.76879883 C-125.38007022 195.71902735 -141.67739729 190.79453074 -158 186 C-158 184.68 -158 183.36 -158 182 C-150.56456074 182.95987366 -143.49928326 184.63666079 -136.3449707 186.82861328 C-128.25748885 189.28139585 -120.07371038 191.34512566 -111.88061523 193.4128418 C-105.2609089 195.09872103 -98.74268061 196.98424032 -92.22412109 199.0246582 C-86.92306534 200.62830183 -81.55734379 201.9612648 -76.1875 203.3125 C-65.17798761 206.12167564 -54.26525805 209.18365682 -43.375 212.421875 C-37.93690182 214.01852592 -32.46793937 215.50874381 -27 217 C-27 195.22 -27 173.44 -27 151 C-31.29 150.67 -35.58 150.34 -40 150 C-60.50103045 146.44595261 -81.15018667 134.77589306 -93.3828125 117.7734375 C-105.74635716 99.76341011 -110.09614783 79.14732878 -106.59716797 57.50878906 C-105.56233378 53.10850276 -103.93659437 49.07194447 -102 45 C-101.53078125 44.00097656 -101.0615625 43.00195312 -100.578125 41.97265625 C-89.857529 20.96374634 -71.33229229 7.51679493 -49.47265625 -0.25390625 C-33.84859952 -4.88146485 -15.50401529 -5.1404791 0 0 Z M-87.65429688 29.37939453 C-100.97891494 45.42598646 -104.53838667 63.72790963 -103 84 C-101.06192243 98.20946294 -94.41792213 110.41382417 -85 121 C-84.40703125 121.68707031 -83.8140625 122.37414062 -83.203125 123.08203125 C-69.97083951 137.4170072 -49.22395717 146.18797993 -29.94140625 147.28125 C-6.35719235 148.0698463 14.63763559 140.77497036 32.625 125.375 C45.16200386 113.53548994 54.42447204 97.00378639 55.3359375 79.52734375 C55.74394314 58.87735348 50.27518728 41.51102505 36 26 C20.16726645 9.53898337 -0.37926375 1.40816947 -23.12744141 0.71630859 C-48.18874955 0.38589135 -70.98688394 10.6658102 -87.65429688 29.37939453 Z " fill="#101010" transform="translate(637,482)"/>
</svg>
