<?xml version="1.0" encoding="UTF-8"?>
<svg version="1.1" xmlns="http://www.w3.org/2000/svg" width="1240" height="1753">
<path d="M0 0 C409.2 0 818.4 0 1240 0 C1240 578.49 1240 1156.98 1240 1753 C830.8 1753 421.6 1753 0 1753 C0 1174.51 0 596.02 0 0 Z " fill="#FEFEFE" transform="translate(0,0)"/>
<path d="M0 0 C14.80614984 11.47056665 27.07987623 28.68793128 29.63354492 47.70166016 C29.796655 51.09858843 29.81864858 54.48874555 29.82104492 57.88916016 C29.83329102 58.78441406 29.84553711 59.67966797 29.8581543 60.60205078 C29.90023414 80.02891355 21.6895221 98.12714412 8.35620117 112.10400391 C-8.00597559 127.71497599 -29.86826076 137.16094494 -52.55395508 137.01416016 C-53.92197266 137.00678833 -53.92197266 137.00678833 -55.31762695 136.99926758 C-77.4215373 136.62064297 -96.90806707 128.25108153 -113.36645508 113.70166016 C-114.00325195 113.16025391 -114.64004883 112.61884766 -115.29614258 112.06103516 C-126.81033462 101.55499818 -135.30748077 84.32663652 -136.60400391 68.86962891 C-137.18331355 55.38135177 -137.25720977 43.087747 -131.36645508 30.70166016 C-130.89723633 29.70263672 -130.42801758 28.70361328 -129.94458008 27.67431641 C-119.22398407 6.66540649 -100.69874737 -6.78154491 -78.83911133 -14.55224609 C-51.86188971 -22.54240358 -22.39605817 -16.69735558 0 0 Z M-117.02075195 15.08105469 C-130.41112413 31.20683308 -133.84450236 49.3600344 -132.36645508 69.70166016 C-130.47364492 83.90076967 -123.76910873 96.1326468 -114.36645508 106.70166016 C-113.77348633 107.38873047 -113.18051758 108.07580078 -112.56958008 108.78369141 C-99.33729459 123.11866736 -78.59041225 131.88964008 -59.30786133 132.98291016 C-35.72364743 133.77150646 -14.72881949 126.47663052 3.25854492 111.07666016 C15.79554878 99.23715009 25.05801696 82.70544655 25.96948242 65.22900391 C26.37748806 44.57901364 20.90873221 27.21268521 6.63354492 11.70166016 C-9.19918863 -4.75935648 -29.74571883 -12.89017037 -52.49389648 -13.58203125 C-77.55520463 -13.9124485 -100.35333901 -3.63252965 -117.02075195 15.08105469 Z " fill="#0F0F0F" transform="translate(666.366455078125,496.29833984375)"/>
</svg>
